name GIL04_free3.mot
datacolumns 153
datarows 4
range 0.86666656 0.89166659
endheader

                time	           pelvis_tx	           pelvis_ty	           pelvis_tz	         pelvis_tilt	         pelvis_list	     pelvis_rotation	       hip_flexion_r	     hip_adduction_r	      hip_rotation_r	        knee_angle_r	       ankle_angle_r	    subtalar_angle_r	         mtp_angle_r	       hip_flexion_l	     hip_adduction_l	      hip_rotation_l	        knee_angle_l	       ankle_angle_l	    subtalar_angle_l	         mtp_angle_l	    lumbar_extension	      lumbar_bending	     lumbar_rotation	     ground_force_vx	     ground_force_vy	     ground_force_vz	     ground_force_px	     ground_force_py	     ground_force_pz	     ground_force_vx	     ground_force_vy	     ground_force_vz	     ground_force_px	     ground_force_py	     ground_force_pz	     ground_torque_x	     ground_torque_y	     ground_torque_z	     ground_torque_x	     ground_torque_y	     ground_torque_z	    ground_marker_px	    ground_marker_py	    ground_marker_pz	    ground_marker_px	    ground_marker_py	    ground_marker_pz	    ground_marker_px	    ground_marker_py	    ground_marker_pz	    ground_marker_px	    ground_marker_py	    ground_marker_pz	    ground_marker_px	    ground_marker_py	    ground_marker_pz	    ground_marker_px	    ground_marker_py	    ground_marker_pz	    ground_marker_px	    ground_marker_py	    ground_marker_pz	    ground_marker_px	    ground_marker_py	    ground_marker_pz	    ground_marker_px	    ground_marker_py	    ground_marker_pz	    ground_marker_px	    ground_marker_py	    ground_marker_pz	    ground_marker_px	    ground_marker_py	    ground_marker_pz	    ground_marker_px	    ground_marker_py	    ground_marker_pz	    ground_marker_px	    ground_marker_py	    ground_marker_pz	    ground_marker_px	    ground_marker_py	    ground_marker_pz	    ground_marker_px	    ground_marker_py	    ground_marker_pz	    ground_marker_px	    ground_marker_py	    ground_marker_pz	    ground_marker_px	    ground_marker_py	    ground_marker_pz	    ground_marker_px	    ground_marker_py	    ground_marker_pz	    ground_marker_px	    ground_marker_py	    ground_marker_pz	    ground_marker_px	    ground_marker_py	    ground_marker_pz	    ground_marker_px	    ground_marker_py	    ground_marker_pz	    ground_marker_px	    ground_marker_py	    ground_marker_pz	    ground_marker_px	    ground_marker_py	    ground_marker_pz	    ground_marker_px	    ground_marker_py	    ground_marker_pz	    ground_marker_px	    ground_marker_py	    ground_marker_pz	    ground_marker_px	    ground_marker_py	    ground_marker_pz	    ground_marker_px	    ground_marker_py	    ground_marker_pz	    ground_marker_px	    ground_marker_py	    ground_marker_pz	    ground_marker_px	    ground_marker_py	    ground_marker_pz	    ground_marker_px	    ground_marker_py	    ground_marker_pz	    ground_marker_px	    ground_marker_py	    ground_marker_pz	    ground_marker_px	    ground_marker_py	    ground_marker_pz	    ground_marker_px	    ground_marker_py	    ground_marker_pz	    ground_marker_px	    ground_marker_py	    ground_marker_pz	    ground_marker_px	    ground_marker_py	    ground_marker_pz	    ground_marker_px	    ground_marker_py	    ground_marker_pz	    ground_marker_px	    ground_marker_py	    ground_marker_pz	
          0.86666656	          2.02138424	          0.76103616	         -0.18321984	         -1.32697868	         -1.75049198	          0.57565683	          5.10194969	          8.71235561	         -0.42086267	        -12.99928570	          9.17289066	          0.00000000	          0.00000000	         22.20836639	         -3.51159716	         -4.25221682	        -51.31575394	         -0.09937092	          0.00000000	          0.00000000	        -16.79986382	          3.18093252	          4.43904209	        -11.99875916	        233.18044504	         -4.54569666	          1.99516724	          0.00000000	         -0.16113019	          0.00000000	          0.00000000	          0.00000000	          1.43456836	          0.00000000	         -0.19460640	          0.00000000	          0.79245483	          0.00000000	          0.00000000	          0.00000000	          0.00000000	          1.96150064	          0.69108593	         -0.18222168	          1.95746362	          0.69858003	         -0.11748469	          1.95534754	          0.69513142	         -0.24324851	          1.97729599	          0.38488662	         -0.15723176	          2.07041621	          0.39216942	         -0.25675455	          1.92363989	          0.05620888	         -0.16702555	          1.91086888	          0.12123003	         -0.25399369	          2.02138424	          0.76103616	         -0.18321984	          2.02295542	          0.76359695	         -0.08983301	          2.01981282	          0.75847536	         -0.27660665	          1.87507021	          0.79950345	         -0.16353118	          1.87307727	          0.79187745	         -0.21829519	          1.97826958	          0.37860042	         -0.10713399	          2.06502724	          0.39233866	         -0.30646300	          1.97241390	          0.38536787	         -0.20484167	          2.09396410	          0.39300632	         -0.20377289	          1.91842246	          0.05607459	         -0.13393462	          1.90179610	          0.12623735	         -0.28690058	          1.92353606	          0.06828176	         -0.19319266	          1.91134059	          0.13096173	         -0.22538462	          1.91540945	          1.14640760	         -0.17673592	          1.99797690	          1.09498549	         -0.12053647	          1.98852444	          1.10127079	         -0.24840648	          1.98712063	          1.08675516	         -0.18718171	          2.00166774	          0.94393003	         -0.19450426	          1.97488058	          0.45971289	         -0.01826029	          2.16152120	          0.54034293	         -0.30083370	          2.00728703	          0.52797729	         -0.07760356	          2.08523345	          0.56898934	         -0.23719659	          2.01838160	          0.44799513	         -0.10152816	          2.10773897	          0.48413646	         -0.23225124	          1.92228162	          0.15495856	         -0.05684684	          2.02717996	          0.16207674	         -0.30633312	          1.94043720	          0.21226312	         -0.11348270	          2.01248431	          0.23997703	         -0.27879074	          2.02018523	          0.03823163	         -0.16626760	          1.97522438	          0.06148990	         -0.26661354	
          0.87499988	          2.03000760	          0.76131374	         -0.18294939	         -1.24353504	         -1.51018846	          0.33759931	          3.80123997	          8.53034878	         -0.37768003	        -12.09793377	          9.36450768	          0.00000000	          0.00000000	         22.86872101	         -3.26101828	         -3.37112713	        -49.03998184	          0.45110944	          0.00000000	          0.00000000	        -16.98859978	          2.89549422	          4.68203783	        -10.72425401	        232.09747258	         -3.83616837	          1.99863696	          0.00000000	         -0.16125674	          0.00000000	          0.00000000	          0.00000000	          1.43549719	          0.00000000	         -0.19382121	          0.00000000	          0.89074091	          0.00000000	          0.00000000	          0.00000000	          0.00000000	          1.97010231	          0.69132698	         -0.18254805	          1.96585798	          0.69855207	         -0.11773060	          1.96437657	          0.69549394	         -0.24351361	          1.97929168	          0.38483313	         -0.15722322	          2.08369613	          0.39360797	         -0.25606525	          1.92393303	          0.05637145	         -0.16724470	          1.93895137	          0.11480744	         -0.25412351	          2.03000760	          0.76131374	         -0.18294939	          2.03110743	          0.76358420	         -0.08956315	          2.02890778	          0.75904328	         -0.27633566	          1.88354027	          0.79957974	         -0.16412680	          1.88185847	          0.79192120	         -0.21892180	          1.97988188	          0.37855104	         -0.10711896	          2.07932973	          0.39395314	         -0.30587307	          1.97369826	          0.38611364	         -0.20537607	          2.10629153	          0.39501551	         -0.20291010	          1.91854858	          0.05627013	         -0.13418043	          1.92965257	          0.11940595	         -0.28702694	          1.92404187	          0.06845160	         -0.19354786	          1.93834662	          0.12426245	         -0.22547305	          1.92476976	          1.14673281	         -0.17675573	          2.00726581	          1.09518147	         -0.12057927	          1.99776483	          1.10143399	         -0.24843080	          1.99639249	          1.08695352	         -0.18720119	          2.01064205	          0.94409043	         -0.19448200	          1.97774327	          0.45988190	         -0.01831749	          2.17368817	          0.54394251	         -0.29759619	          2.01213956	          0.52689093	         -0.07747285	          2.09541893	          0.57110667	         -0.23518458	          2.02106810	          0.44724998	         -0.10159253	          2.11920118	          0.48656699	         -0.23038509	          1.92253637	          0.15514416	         -0.05704296	          2.05282044	          0.16201748	         -0.30613908	          1.94107115	          0.21236914	         -0.11376691	          2.03379583	          0.23874919	         -0.27830830	          2.02029920	          0.03823047	         -0.16625838	          2.00675488	          0.05941612	         -0.26687682	
          0.88333327	          2.03865480	          0.76138985	         -0.18271662	         -1.16030121	         -1.30065668	          0.09350386	          2.49732304	          8.36676979	         -0.25209743	        -11.19648361	          9.54918766	          0.00000000	          0.00000000	         23.45489883	         -3.04288054	         -2.70531154	        -46.57704544	          0.93225068	          0.00000000	          0.00000000	        -17.13798332	          2.65181065	          4.93578863	         -9.36726835	        232.23158549	         -3.15297930	          2.00187976	          0.00000000	         -0.16148666	          0.00000000	          0.00000000	          0.00000000	          1.43642017	          0.00000000	         -0.19305956	          0.00000000	          0.98600098	          0.00000000	          0.00000000	          0.00000000	          0.00000000	          1.97878766	          0.69134647	         -0.18288858	          1.97427940	          0.69835997	         -0.11798071	          1.97342908	          0.69562554	         -0.24377702	          1.98128366	          0.38473764	         -0.15722500	          2.09657025	          0.39472857	         -0.25534263	          1.92423832	          0.05654221	         -0.16751303	          1.96742857	          0.10848927	         -0.25422317	          2.03865480	          0.76138985	         -0.18271662	          2.03928590	          0.76341975	         -0.08933222	          2.03802347	          0.75935996	         -0.27610102	          1.89209020	          0.79944545	         -0.16479771	          1.89069295	          0.79175740	         -0.21959969	          1.98157108	          0.37847379	         -0.10711579	          2.09304428	          0.39520243	         -0.30521587	          1.97507322	          0.38651580	         -0.20558034	          2.11833668	          0.39660579	         -0.20207903	          1.91870463	          0.05646833	         -0.13447331	          1.95789409	          0.11266227	         -0.28711587	          1.92463040	          0.06861854	         -0.19391128	          1.96580350	          0.11755449	         -0.22551973	          1.93407035	          1.14682186	         -0.17683293	          2.01654959	          1.09516299	         -0.12063572	          2.00699162	          1.10140932	         -0.24850771	          2.00565839	          1.08695281	         -0.18726073	          2.01969934	          0.94405729	         -0.19452943	          1.98082483	          0.46001843	         -0.01838270	          2.18533397	          0.54689187	         -0.29483017	          2.01651359	          0.52628267	         -0.07748331	          2.10548806	          0.57271111	         -0.23352261	          2.02377748	          0.44647950	         -0.10174403	          2.13040423	          0.48850170	         -0.22878599	          1.92285693	          0.15531893	         -0.05726454	          2.07839608	          0.16217268	         -0.30595952	          1.94181502	          0.21251409	         -0.11400554	          2.05476642	          0.23756973	         -0.27758086	          2.02042508	          0.03822884	         -0.16627054	          2.03843713	          0.05766338	         -0.26712391	
          0.89166659	          2.04732990	          0.76126361	         -0.18251888	         -1.07896233	         -1.12335336	         -0.15711512	          1.19411755	          8.22253990	         -0.04185160	        -10.30236626	          9.72926998	          0.00000000	          0.00000000	         23.97269440	         -2.85420251	         -2.28890133	        -43.95358658	          1.36112142	          0.00000000	          0.00000000	        -17.30691147	          2.42843056	          5.18076849	         -7.90357592	        233.50630487	         -2.71184989	          2.00498840	          0.00000000	         -0.16177251	          0.00000000	          0.00000000	          0.00000000	          1.43732617	          0.00000000	         -0.19230527	          0.00000000	          1.06486743	          0.00000000	          0.00000000	          0.00000000	          0.00000000	          1.98756433	          0.69114381	         -0.18324238	          1.98273003	          0.69800580	         -0.11823054	          1.98250782	          0.69552481	         -0.24403478	          1.98329222	          0.38460255	         -0.15722798	          2.10906959	          0.39552236	         -0.25456709	          1.92455018	          0.05672147	         -0.16783203	          1.99625230	          0.10238638	         -0.25430736	          2.04732990	          0.76126361	         -0.18251888	          2.04749489	          0.76310515	         -0.08913634	          2.04716516	          0.75942200	         -0.27590144	          1.90072358	          0.79910213	         -0.16554052	          1.89958584	          0.79138935	         -0.22032470	          1.98335850	          0.37836695	         -0.10711449	          2.10617399	          0.39605314	         -0.30448034	          1.97680330	          0.38657030	         -0.20557569	          2.13010097	          0.39775127	         -0.20133157	          1.91888571	          0.05666846	         -0.13481444	          1.98647749	          0.10611918	         -0.28718245	          1.92489386	          0.06880136	         -0.19434370	          1.99418616	          0.11076965	         -0.22557490	          1.94341302	          1.14672971	         -0.17690064	          2.02583003	          1.09498262	         -0.12071456	          2.01625204	          1.10119081	         -0.24854910	          2.01492548	          1.08675361	         -0.18735269	          2.02875543	          0.94384331	         -0.19453175	          1.98414385	          0.46010694	         -0.01844657	          2.19647098	          0.54914677	         -0.29261577	          2.02059603	          0.52591151	         -0.07761487	          2.11550641	          0.57382381	         -0.23212737	          2.02665591	          0.44573230	         -0.10193676	          2.14137769	          0.48992249	         -0.22746609	          1.92324865	          0.15548316	         -0.05750804	          2.10384488	          0.16259223	         -0.30579171	          1.94253075	          0.21261910	         -0.11415155	          2.07579732	          0.23630780	         -0.27708068	          2.02056098	          0.03822282	         -0.16630530	          2.07021523	          0.05632686	         -0.26736605	
